<?xml version="1.0" standalone="no"?>
<!DOCTYPE svg PUBLIC "-//W3C//DTD SVG 20010904//EN"
 "http://www.w3.org/TR/2001/REC-SVG-20010904/DTD/svg10.dtd">
<svg version="1.0" xmlns="http://www.w3.org/2000/svg"
 width="2216.000000pt" height="1640.000000pt" viewBox="0 0 2216.000000 1640.000000"
 preserveAspectRatio="xMidYMid meet">
<metadata>
Created by potrace 1.16, written by Peter Selinger 2001-2019
</metadata>
<g transform="translate(0.000000,1640.000000) scale(0.100000,-0.100000)"
fill="#000000" stroke="none">
<path d="M18520 14321 c-94 -30 -152 -58 -219 -104 -24 -17 -81 -46 -125 -64
-45 -19 -92 -44 -106 -56 -14 -13 -44 -37 -68 -55 l-42 -33 -23 26 c-32 36
-130 68 -192 62 -45 -4 -54 -1 -100 33 -37 28 -65 41 -110 48 -33 5 -120 29
-194 52 l-133 42 -302 -5 c-249 -4 -310 -8 -356 -22 -30 -10 -59 -24 -65 -31
-5 -7 -57 -31 -115 -54 -58 -23 -112 -50 -120 -60 -16 -20 -182 -90 -212 -90
-33 0 -120 -51 -235 -136 -119 -89 -122 -94 -154 -218 -9 -36 -28 -67 -71
-115 -33 -36 -80 -95 -105 -131 -25 -36 -60 -77 -78 -92 -39 -33 -91 -111
-101 -153 -4 -16 -14 -41 -24 -55 -37 -55 -90 -159 -90 -177 0 -10 -16 -42
-35 -70 -19 -29 -35 -59 -35 -67 0 -13 -99 -145 -155 -206 -22 -24 -65 -147
-65 -185 0 -10 -8 -28 -19 -39 -18 -20 -28 -48 -67 -186 -11 -39 -34 -85 -56
-115 -21 -27 -44 -68 -50 -90 -6 -22 -24 -58 -39 -80 -56 -85 -129 -270 -129
-330 0 -10 -8 -28 -19 -39 -23 -26 -55 -121 -46 -136 4 -6 -9 -37 -29 -69 -39
-64 -107 -217 -99 -225 3 -2 -5 -33 -18 -68 -22 -59 -23 -80 -27 -365 -2 -167
-6 -303 -9 -303 -25 0 -98 31 -144 60 -31 20 -78 44 -105 55 -27 10 -72 37
-101 61 -48 42 -140 90 -151 80 -2 -3 -28 10 -58 29 -71 46 -154 88 -179 90
-11 2 -47 18 -80 38 -33 19 -77 39 -97 45 -21 6 -61 31 -90 56 -29 25 -57 46
-62 46 -5 0 -49 30 -97 66 l-89 66 -86 6 c-50 3 -91 10 -98 18 -8 7 -56 36
-109 64 -77 41 -104 51 -139 49 -24 -1 -76 8 -116 20 -44 13 -93 21 -125 20
-43 -2 -62 3 -107 29 -35 19 -80 35 -120 41 -36 6 -94 19 -130 30 -86 27 -150
28 -150 2 0 -16 -9 -14 -75 21 l-75 39 -1018 -3 c-930 -4 -1021 -5 -1061 -21
-37 -14 -81 -17 -278 -17 -207 0 -244 -3 -321 -22 -48 -12 -98 -30 -112 -40
-14 -10 -59 -22 -105 -29 -44 -6 -93 -17 -110 -24 -16 -7 -55 -17 -85 -21 -47
-6 -174 -62 -145 -65 6 0 -8 -9 -30 -19 -25 -11 -65 -19 -105 -20 -84 -1 -231
-39 -264 -67 -15 -13 -39 -23 -55 -23 -16 0 -48 -7 -71 -15 -23 -8 -68 -15
-99 -15 -78 -1 -223 -39 -257 -69 -15 -13 -57 -32 -93 -41 -58 -15 -188 -72
-201 -89 -10 -12 -145 -50 -199 -56 -30 -3 -82 -20 -120 -39 -36 -18 -84 -35
-106 -38 -38 -5 -42 -3 -89 48 -45 50 -48 57 -51 114 -3 53 -8 68 -43 114 -36
48 -39 57 -35 98 6 55 -34 194 -80 277 -16 29 -36 85 -43 125 -11 57 -24 85
-64 143 -50 71 -50 72 -50 150 0 45 -9 110 -20 153 -11 41 -20 102 -20 135 0
55 -5 70 -61 170 -34 61 -62 119 -64 130 -8 70 -117 265 -197 355 -27 30 -57
74 -68 96 -22 50 -107 177 -147 220 -16 17 -74 60 -129 96 -55 36 -111 79
-125 95 -13 17 -54 49 -91 73 -38 23 -68 45 -68 50 0 20 -108 68 -168 75 -34
4 -91 16 -125 26 -46 15 -105 21 -232 25 -148 5 -178 9 -235 30 -36 14 -70 31
-75 38 -6 7 -37 21 -70 31 -47 14 -109 19 -290 22 -126 3 -234 9 -239 14 -5 4
-13 51 -17 104 -8 90 -11 100 -46 148 -37 50 -38 54 -35 127 l2 75 -83 100
c-73 88 -90 103 -142 125 l-60 25 -857 3 -858 4 0 -201 0 -201 804 0 803 0 7
-72 c5 -50 16 -86 35 -120 15 -26 31 -45 34 -41 4 3 7 -23 7 -59 l0 -65 -94
-6 c-125 -8 -260 -54 -336 -114 -42 -33 -64 -43 -91 -43 -25 0 -66 -16 -130
-51 -52 -29 -95 -52 -95 -53 -1 0 -5 -62 -9 -136 l-7 -136 131 -52 c73 -29
142 -52 154 -52 19 -1 18 -3 -10 -18 -18 -9 -32 -21 -32 -27 0 -5 -38 -21 -84
-35 -76 -22 -89 -30 -122 -70 -21 -25 -62 -61 -91 -81 -37 -24 -50 -39 -43
-46 7 -7 -21 -19 -88 -38 -54 -15 -103 -31 -109 -36 -6 -5 -238 -9 -515 -9
-476 0 -508 1 -569 20 -71 22 -145 26 -155 10 -5 -8 -11 -7 -21 1 -11 9 -14
57 -14 248 l0 236 40 93 c22 51 40 100 40 110 0 10 9 43 20 75 11 31 20 69 20
85 0 42 26 88 58 101 15 6 42 25 61 41 18 17 44 30 58 30 28 0 149 60 180 89
12 12 27 21 33 21 6 0 10 68 10 200 l0 200 -33 0 c-37 0 -199 -66 -247 -100
-17 -12 -70 -39 -119 -60 -133 -56 -229 -126 -288 -208 -18 -25 -30 -48 -27
-53 2 -4 -23 -75 -56 -158 -33 -82 -60 -163 -60 -180 0 -18 -10 -42 -22 -57
-13 -14 -33 -62 -45 -112 -21 -80 -23 -111 -23 -368 l0 -281 40 -73 c22 -40
40 -77 40 -83 0 -23 95 -123 142 -150 44 -25 62 -29 161 -34 74 -3 124 -10
147 -21 31 -15 100 -17 628 -20 l594 -3 73 40 c40 21 92 42 116 46 32 5 68 25
130 71 48 35 91 64 97 64 5 0 34 23 63 51 31 28 67 53 84 56 17 3 53 23 82 44
29 22 55 39 58 39 11 0 165 122 165 131 0 11 134 107 175 125 17 7 63 40 104
74 75 61 116 118 141 193 6 21 17 36 23 34 7 -2 24 14 39 35 l28 38 207 0
c234 0 283 -9 424 -81 l76 -39 155 0 c130 0 164 -3 214 -21 32 -11 71 -18 85
-15 19 4 33 -2 50 -20 30 -32 86 -67 97 -60 5 3 37 -24 72 -59 36 -36 70 -65
77 -65 7 0 28 -13 46 -30 19 -16 39 -30 44 -30 9 0 60 -77 134 -204 19 -32 51
-76 71 -97 21 -21 49 -60 62 -86 33 -63 52 -86 64 -79 6 3 13 -6 17 -22 20
-84 38 -132 46 -126 17 10 50 -88 56 -170 3 -45 11 -103 19 -130 8 -27 14 -78
14 -112 0 -89 34 -220 68 -269 16 -22 34 -39 39 -38 6 1 14 -17 17 -39 8 -46
63 -209 74 -218 15 -11 51 -149 57 -219 5 -55 14 -87 34 -123 15 -26 30 -45
33 -42 4 3 9 -25 13 -63 8 -74 22 -108 67 -165 l29 -37 -58 -30 c-32 -16 -70
-41 -84 -54 -18 -17 -42 -26 -84 -32 -56 -7 -162 -55 -149 -67 3 -4 -25 -9
-63 -13 -44 -5 -89 -18 -126 -37 -77 -38 -135 -80 -130 -95 2 -6 -13 -17 -34
-23 -47 -16 -135 -65 -128 -72 3 -3 -23 -15 -57 -27 -104 -37 -186 -82 -192
-106 -4 -14 -24 -29 -63 -45 -66 -27 -100 -50 -194 -132 -47 -41 -93 -69 -155
-95 -49 -21 -95 -45 -102 -55 -7 -10 -28 -25 -45 -34 -59 -30 -147 -89 -147
-99 0 -6 -35 -28 -77 -49 -43 -21 -84 -47 -91 -57 -7 -11 -61 -42 -120 -69
-66 -32 -116 -62 -130 -80 -12 -16 -39 -34 -60 -41 -74 -24 -202 -113 -202
-141 0 -5 -32 -51 -70 -103 -62 -84 -70 -100 -70 -140 l0 -45 169 0 c157 0
171 -1 184 -20 13 -18 15 -17 64 25 27 24 70 52 94 61 25 10 71 43 105 77 36
34 67 56 73 52 14 -8 137 48 169 77 l22 21 0 -980 0 -980 30 -154 c17 -85 35
-162 40 -171 6 -10 10 -50 10 -90 0 -54 8 -97 31 -168 27 -83 37 -101 78 -138
25 -23 62 -51 81 -61 34 -19 111 -94 179 -175 53 -63 260 -220 274 -208 9 8
26 -7 63 -52 42 -51 70 -73 162 -124 61 -34 114 -62 117 -62 4 0 53 -42 109
-94 63 -58 115 -98 139 -106 21 -6 106 -45 190 -85 84 -39 163 -76 177 -80 14
-4 95 -49 180 -100 86 -52 169 -97 185 -101 17 -3 107 -39 200 -79 105 -44
197 -77 240 -84 97 -17 328 -86 400 -120 33 -15 121 -64 196 -109 75 -45 156
-86 180 -91 24 -6 112 -33 194 -61 170 -58 599 -167 690 -176 62 -6 480 -107
595 -144 62 -19 176 -40 414 -75 60 -9 153 -29 206 -45 122 -36 568 -93 900
-115 129 -9 388 -27 575 -41 328 -24 366 -25 1080 -21 863 4 947 10 1236 82
257 65 396 121 398 161 1 9 261 84 412 118 37 8 112 33 168 56 56 22 136 49
177 60 42 11 99 32 127 47 72 36 231 88 330 108 67 14 106 31 215 92 74 41
140 76 147 77 18 3 165 126 165 139 0 5 42 53 94 106 102 104 218 256 260 338
14 29 43 114 65 190 21 76 48 158 61 183 51 100 145 333 186 463 24 77 56 160
73 185 16 26 46 82 65 126 58 128 66 205 66 661 0 451 -6 514 -56 588 -17 27
-36 48 -40 47 -13 -2 -22 38 -23 105 -1 54 -8 75 -68 190 -67 131 -146 259
-154 250 -3 -2 -21 26 -41 63 -38 70 -79 116 -113 126 -13 4 -28 27 -44 68
-63 165 -96 221 -180 310 -45 48 -87 86 -93 85 -6 -1 -27 41 -47 95 -35 93
-62 138 -85 138 -6 0 -30 38 -54 85 -40 77 -51 91 -130 152 -48 37 -93 73
-101 81 -7 7 -20 11 -27 8 -8 -3 -14 -2 -14 2 0 5 -33 58 -72 119 -93 142
-141 181 -259 207 -15 3 -54 26 -88 51 -37 27 -83 51 -115 59 -30 8 -73 27
-97 42 -24 15 -73 38 -109 49 -63 21 -65 23 -70 61 -3 22 -22 70 -43 107 l-37
68 0 298 c0 256 2 303 16 331 9 18 19 53 22 78 3 26 14 55 24 67 31 32 88 152
88 183 0 16 20 75 45 132 25 57 45 118 45 136 0 18 14 59 32 91 56 104 93 177
111 223 54 132 91 209 103 214 7 3 16 22 20 42 4 21 27 83 50 137 26 59 44
115 44 137 0 32 4 39 29 50 16 6 35 25 41 41 7 16 18 33 25 37 7 4 28 34 46
67 19 33 48 82 66 109 18 26 40 73 49 104 9 31 29 72 44 92 16 19 41 67 57
105 37 88 130 228 148 222 15 -6 56 35 79 80 8 17 31 44 49 60 25 20 40 47 56
96 13 37 26 67 31 67 5 0 11 12 15 28 3 16 20 37 43 51 99 65 212 125 261 137
75 20 130 46 170 80 19 16 66 39 105 51 66 21 89 23 331 23 145 0 265 -4 270
-9 15 -14 163 -60 217 -67 27 -4 46 -9 43 -12 -7 -7 90 -62 112 -62 12 -1 9
-6 -12 -16 -60 -32 -162 -100 -224 -151 -35 -28 -88 -64 -117 -80 -30 -15 -54
-31 -54 -36 0 -4 38 -84 85 -178 75 -148 88 -169 105 -164 17 5 20 2 20 -24 0
-18 -10 -42 -22 -57 -36 -41 -67 -181 -68 -302 0 -72 -6 -129 -21 -185 -19
-75 -20 -103 -17 -342 5 -329 11 -350 126 -467 56 -57 83 -78 102 -78 15 0 41
-12 59 -27 18 -16 70 -44 115 -63 l81 -35 475 -3 475 -3 102 32 c98 31 108 37
215 125 62 52 160 132 218 180 58 47 114 101 124 120 11 19 27 34 37 34 25 0
187 147 209 190 11 21 35 51 54 67 19 15 49 59 67 96 23 46 41 70 55 73 12 3
28 19 34 35 7 16 18 33 25 37 33 19 152 251 185 360 12 39 25 72 30 72 14 0
50 103 50 145 0 23 7 56 16 74 8 17 18 66 21 108 5 58 11 82 27 100 35 41 56
144 56 286 0 117 -2 132 -25 177 -14 28 -23 50 -19 50 3 0 -16 40 -42 88 -43
82 -52 91 -115 131 -38 23 -69 46 -69 51 0 4 -24 22 -54 38 -45 26 -70 32
-167 41 -130 12 -870 14 -941 2 l-48 -8 0 69 0 68 -62 -1 c-40 0 -95 -11 -148
-28z m1202 -516 c21 -20 50 -41 64 -47 23 -11 24 -15 24 -103 0 -85 -3 -98
-41 -186 -30 -71 -39 -104 -36 -134 2 -22 -5 -66 -15 -98 -10 -33 -18 -70 -18
-84 0 -14 -13 -49 -28 -77 -16 -28 -37 -80 -47 -116 -10 -36 -31 -84 -47 -107
-15 -23 -28 -48 -28 -56 0 -7 -41 -66 -90 -130 -50 -64 -89 -120 -89 -124 1
-4 -30 -41 -69 -82 -40 -40 -72 -79 -72 -86 0 -7 -33 -32 -72 -54 -70 -40
-127 -94 -132 -126 -1 -8 -29 -28 -62 -46 -65 -34 -174 -134 -174 -160 0 -23
-15 -32 -90 -57 -62 -21 -84 -22 -477 -22 l-411 -1 -48 30 c-26 17 -62 35 -81
42 l-33 11 0 239 c0 197 -2 239 -14 239 -10 0 -4 19 20 63 31 58 34 68 34 157
0 88 3 101 40 188 22 51 40 100 40 110 0 10 9 43 20 75 11 31 20 71 20 89 0
19 18 70 41 118 23 47 52 104 63 128 20 40 25 43 102 67 45 14 86 25 91 25 5
0 27 13 49 30 22 16 78 45 124 64 46 20 101 47 123 62 22 14 79 43 128 63 48
20 99 46 112 57 13 12 44 23 68 26 25 3 60 12 79 21 30 15 91 17 460 20 234 1
427 3 429 5 2 1 21 -14 43 -33z m-7972 -2835 c41 -11 93 -20 116 -20 22 0 54
-7 71 -15 17 -8 58 -18 92 -22 35 -3 69 -12 77 -20 31 -32 136 -63 209 -63 45
0 84 -6 103 -15 16 -9 60 -18 96 -22 58 -5 76 -12 135 -53 87 -60 117 -70 209
-70 58 0 72 -3 64 -13 -8 -9 24 -35 131 -107 78 -52 162 -102 187 -110 25 -8
56 -23 70 -32 14 -9 50 -26 80 -37 30 -11 78 -36 107 -55 28 -19 91 -49 138
-67 60 -22 90 -39 97 -54 9 -20 119 -85 144 -85 6 0 40 -19 75 -41 70 -46 141
-79 167 -79 10 0 64 -22 122 -50 58 -27 111 -50 117 -50 7 0 13 -6 14 -12 0
-7 54 -56 119 -108 87 -69 119 -101 119 -117 1 -21 6 -23 61 -23 57 0 60 1 60
25 0 30 4 31 40 5 33 -23 116 -60 136 -60 7 0 47 -22 88 -49 41 -26 94 -54
118 -61 39 -12 48 -20 83 -83 68 -119 106 -159 196 -203 79 -38 82 -41 116
-107 19 -38 52 -88 74 -112 23 -25 47 -65 57 -96 22 -67 106 -180 205 -278 41
-41 73 -79 71 -86 -3 -7 8 -44 24 -84 22 -56 47 -94 118 -173 49 -56 89 -105
89 -109 0 -4 20 -31 44 -61 51 -63 144 -240 148 -283 4 -52 25 -149 35 -169 6
-11 26 -41 45 -67 l34 -48 0 -388 c-1 -442 -6 -479 -62 -562 -26 -38 -61 -120
-108 -251 -37 -107 -102 -271 -143 -365 -41 -93 -92 -228 -113 -300 -21 -71
-44 -143 -53 -160 -24 -48 -104 -143 -197 -235 -48 -48 -100 -110 -118 -142
-24 -45 -36 -57 -49 -52 -10 3 -18 2 -18 -3 0 -4 -17 -27 -38 -50 l-37 -43
-110 -10 c-120 -10 -320 -67 -427 -121 -32 -16 -64 -29 -71 -29 -7 0 -87 -27
-177 -60 -90 -33 -171 -60 -180 -60 -9 0 -108 -25 -221 -55 l-204 -54 -102
-70 c-57 -39 -103 -67 -103 -62 0 5 -78 -11 -172 -34 -155 -39 -198 -46 -418
-62 -221 -17 -312 -19 -930 -13 -620 6 -716 10 -1015 34 -181 15 -409 31 -505
36 -221 10 -647 69 -755 104 -44 14 -186 41 -315 61 -129 20 -260 44 -290 55
-121 42 -540 140 -598 140 -33 0 -79 7 -103 15 -24 9 -123 36 -219 60 -96 24
-236 65 -310 90 -74 25 -167 54 -206 64 -53 14 -95 35 -165 82 -52 34 -128 80
-170 100 -85 42 -376 131 -484 149 -47 7 -117 32 -210 75 -77 35 -163 70 -192
78 -29 9 -102 49 -170 95 -79 53 -144 88 -194 105 -41 14 -127 52 -190 85 -63
33 -131 65 -152 72 -26 8 -54 31 -94 78 -54 65 -91 91 -205 142 -26 12 -59 34
-75 49 -15 15 -66 54 -113 86 -128 88 -235 180 -284 244 -52 67 -104 115 -168
156 l-48 30 0 99 c0 99 0 100 -46 185 -25 47 -55 96 -66 108 l-21 22 27 7 26
6 0 1084 0 1084 -50 0 -49 0 49 46 c27 25 53 43 58 40 5 -3 38 6 73 20 52 21
70 34 94 70 17 24 35 44 40 44 6 0 40 20 77 45 37 25 70 45 74 45 3 0 34 22
68 48 39 32 89 59 141 77 44 16 98 44 121 62 23 18 44 33 48 33 4 0 49 29 99
64 121 83 127 86 198 91 52 3 68 9 115 45 30 22 59 38 64 35 20 -12 124 27
194 73 83 56 138 82 169 82 12 0 51 19 87 43 67 44 138 70 224 82 33 5 69 20
106 45 49 34 62 38 97 33 56 -7 191 36 319 104 55 29 114 53 130 53 16 0 62
18 102 40 67 37 80 40 148 40 49 0 94 7 131 20 32 11 65 20 75 20 10 0 59 18
110 40 69 30 107 40 145 40 113 0 251 42 319 97 22 18 44 30 47 27 3 -4 37 3
76 15 38 11 90 21 115 21 31 0 75 13 138 40 l93 40 255 0 c224 1 261 3 305 20
48 17 98 18 1015 19 929 1 968 0 1040 -19z"/>
<path d="M7794 9542 c-99 -46 -142 -80 -173 -139 -7 -14 -21 -23 -36 -23 -29
0 -172 -60 -213 -88 -17 -13 -59 -26 -103 -33 -61 -9 -83 -18 -126 -50 -29
-21 -55 -39 -58 -39 -3 0 -36 -23 -73 -51 -63 -48 -69 -57 -114 -157 -47 -104
-48 -108 -48 -209 l0 -102 81 -106 c53 -69 87 -105 100 -105 16 0 19 -7 19
-48 l0 -48 53 -17 c30 -9 70 -17 90 -17 35 0 67 -20 67 -43 0 -7 24 -25 53
-42 l52 -29 263 -4 262 -4 0 -59 0 -59 139 0 c129 0 145 2 218 29 80 30 176
79 158 82 -5 1 26 5 70 8 44 4 95 14 114 24 22 11 58 17 105 17 86 1 196 27
229 56 21 19 40 22 174 26 148 6 152 6 205 38 48 29 60 43 101 120 l47 87 0
130 c0 168 -12 234 -56 300 -19 29 -34 57 -34 63 0 5 15 10 34 10 l34 0 7 196
c4 107 4 198 1 201 -4 4 -86 9 -184 11 l-177 4 -77 39 c-77 39 -79 40 -185 39
-83 -1 -123 4 -173 19 -60 19 -89 21 -405 20 l-340 -1 -101 -46z"/>
<path d="M12600 9110 l0 -40 -312 -1 -313 0 -90 -115 c-49 -63 -105 -134 -122
-158 l-33 -43 33 -45 c30 -43 85 -94 136 -128 l24 -16 -35 -79 -34 -80 69 -90
c67 -87 68 -90 45 -96 -12 -4 -35 -7 -50 -8 -22 -1 -41 -20 -105 -104 l-79
-102 56 -129 55 -129 50 -18 c44 -15 93 -18 395 -18 320 -1 350 -2 403 -21 56
-20 78 -20 600 -18 480 3 546 5 577 20 19 9 73 19 118 22 66 5 94 13 133 35
27 15 46 30 43 33 -3 4 25 9 63 13 76 8 105 21 181 78 38 29 49 42 40 48 -9 6
-4 11 17 19 17 6 66 26 109 43 78 32 80 33 97 82 15 42 18 89 18 310 l1 260
-42 98 c-30 71 -49 102 -67 112 -14 7 -34 29 -44 47 -14 27 -38 44 -110 80
-131 66 -187 89 -197 83 -5 -3 -33 12 -62 33 -41 31 -68 42 -120 51 -46 8
-285 11 -757 11 l-691 -1 0 -39z m1444 -409 c17 -11 58 -22 91 -26 73 -9 74
-9 119 -63 l36 -44 0 -144 c0 -129 -2 -145 -17 -151 -10 -3 -39 -26 -65 -51
-41 -40 -52 -45 -96 -46 l-50 -2 57 41 c48 36 59 49 74 97 22 72 22 80 -10
175 -25 71 -34 86 -78 122 -27 23 -65 47 -82 53 -34 13 -37 16 -27 42 8 20 10
20 48 -3z"/>
<path d="M14165 7357 c-62 -22 -100 -42 -122 -64 -30 -31 -35 -33 -106 -33
-76 0 -131 -16 -174 -50 -16 -12 -50 -20 -110 -25 -49 -3 -106 -11 -128 -17
-22 -6 -215 -14 -430 -18 -427 -9 -465 -14 -621 -78 -38 -16 -101 -35 -140
-41 -87 -15 -202 -47 -243 -67 -17 -9 -71 -19 -119 -24 -48 -4 -107 -13 -132
-19 -25 -5 -137 -12 -250 -15 -206 -5 -278 -16 -395 -59 -28 -10 -107 -16
-270 -21 -140 -3 -259 -12 -305 -21 -47 -9 -131 -15 -228 -15 -181 0 -339 -22
-392 -56 -29 -18 -55 -23 -145 -28 -60 -3 -136 -12 -168 -21 -49 -13 -162 -15
-747 -15 l-690 0 0 -200 0 -200 540 0 540 0 0 -190 0 -189 80 -104 c77 -101
80 -104 126 -111 102 -14 270 -7 336 14 49 15 91 20 194 20 143 0 210 15 255
56 24 23 31 24 173 24 l147 0 99 75 98 74 7 87 c7 75 4 98 -15 163 -47 162
-47 160 -111 191 l-58 27 69 12 c38 6 147 11 244 11 187 0 280 13 376 51 49
20 80 23 285 28 127 4 236 10 243 14 9 7 12 -41 12 -223 0 -191 -3 -236 -16
-261 -8 -17 -18 -28 -21 -25 -4 3 -19 -16 -34 -43 -20 -35 -30 -70 -36 -127
l-8 -79 157 -75 c87 -41 157 -81 158 -87 0 -28 96 -15 192 27 80 34 103 40
166 40 47 0 93 7 129 20 32 11 65 20 75 20 10 0 59 18 110 40 l93 40 175 1
c140 0 185 4 225 18 l50 18 52 129 52 129 -2 330 -2 330 130 22 c72 12 148 22
170 23 56 1 173 33 215 58 26 16 51 22 97 22 82 0 178 33 223 76 27 26 45 34
72 34 l36 0 7 196 c4 107 6 196 4 198 -2 2 -26 6 -54 9 -40 4 -68 -1 -140 -26z
m-1167 -647 c8 -27 12 -116 12 -280 l0 -240 -92 0 c-111 -1 -253 -33 -292 -67
-15 -13 -39 -23 -54 -23 -16 0 -48 -6 -73 -14 -24 -8 -81 -17 -126 -19 l-83
-5 0 264 0 264 -27 0 -28 1 25 13 c14 8 59 19 100 26 99 15 168 34 264 72 102
41 129 45 256 47 l105 1 13 -40z m-2468 -398 l0 -78 -45 -22 c-33 -16 -64 -22
-114 -22 -58 0 -81 -6 -147 -37 -74 -34 -87 -37 -216 -44 -75 -4 -165 -15
-198 -23 -34 -9 -66 -16 -71 -16 -5 0 -9 45 -9 100 0 88 -2 100 -17 101 -10 0
9 9 42 19 43 14 90 20 165 20 99 1 110 3 195 39 l90 39 163 1 162 1 0 -78z"/>
</g>
</svg>
